<?xml version="1.0" encoding="UTF-8"?><svg id="Layer_1" xmlns="http://www.w3.org/2000/svg" width="91.11" height="36.01" viewBox="0 0 91.11 36.01"><defs><style>.cls-1{fill:#e69a8d;}.cls-1,.cls-2{stroke-width:0px;}.cls-2{fill:#5f4b8b;}</style></defs><g id="Group_23"><path id="Path_1" class="cls-2" d="M20.54,3.19v7.4h-2.47V3.19h-2.03V1.1h6.52v2.09h-2.03Z"/><path id="Path_2" class="cls-2" d="M23.19,4.13h2.28v1.06c.22-.36.53-.67.89-.89.38-.21.8-.32,1.23-.31h.2c.08,0,.16,0,.24.02v2.18c-.31-.15-.64-.23-.98-.23-.45-.03-.89.14-1.19.47-.29.4-.43.89-.4,1.38v2.77h-2.28v-6.46Z"/><path id="Path_3" class="cls-2" d="M28.9,1.65c0-.17.03-.34.1-.5.13-.31.38-.55.69-.69.32-.13.68-.13,1,0,.31.13.55.38.69.69.13.32.13.68,0,.99-.13.31-.38.55-.69.69-.32.13-.68.13-1,0-.31-.13-.55-.38-.69-.69-.07-.16-.1-.33-.1-.5M31.33,10.58h-2.28v-6.45h2.28v6.45Z"/><path id="Path_4" class="cls-2" d="M35.36,6.03v4.56h-2.28v-4.56h-.82v-1.9h.82v-.97c-.01-.43.04-.87.15-1.28.09-.27.22-.53.4-.75.18-.23.4-.43.65-.6.25-.17.52-.3.8-.39C35.35.05,35.64,0,35.93,0c.18,0,.36.02.54.06.17.04.34.1.5.18v1.99c-.14-.07-.28-.13-.42-.17-.13-.04-.27-.06-.41-.06-.1,0-.19.02-.28.04-.11.04-.2.1-.27.18-.09.11-.15.25-.17.4-.03.23-.05.47-.04.7v.81h1.6v1.9h-1.6Z"/><path id="Path_5" class="cls-2" d="M40,7.74c0,.98.46,1.47,1.39,1.47.46.02.89-.21,1.12-.6h2.2c-.41,1.46-1.83,2.4-3.34,2.22-.51,0-1.02-.08-1.5-.25-.43-.15-.83-.39-1.16-.7-.32-.3-.58-.67-.75-1.08-.18-.45-.27-.93-.26-1.41,0-.5.08-.99.25-1.45.16-.41.4-.79.72-1.1.32-.31.71-.55,1.13-.7.48-.17.98-.25,1.49-.24.5,0,1,.08,1.47.24.42.15.8.39,1.11.71.31.32.55.71.69,1.14.17.49.25,1,.24,1.52v.24h-4.79ZM42.67,6.42c-.06-.3-.23-.57-.47-.77-.51-.38-1.2-.39-1.72-.01-.23.2-.38.48-.42.78h2.61Z"/><path id="Path_6" class="cls-2" d="M50.97,6.22c-.35-.25-.77-.39-1.2-.4-.21,0-.42.04-.61.11-.19.07-.36.18-.5.32-.14.14-.26.31-.33.49-.08.2-.12.42-.12.64,0,.21.04.43.12.62.08.18.19.35.33.49.14.14.31.25.5.32.2.08.41.11.62.11.44,0,.86-.16,1.2-.44v1.93c-.5.23-1.05.35-1.6.36-.46,0-.91-.08-1.34-.24-.84-.31-1.52-.94-1.89-1.76-.2-.44-.3-.91-.29-1.39,0-.48.09-.96.28-1.4.18-.41.43-.79.75-1.1.33-.31.72-.56,1.14-.72.45-.17.93-.26,1.42-.26.53,0,1.06.12,1.54.35v1.95Z"/><path id="Path_7" class="cls-2" d="M54.81,6.03v4.56h-2.28v-4.56h-.76v-1.9h.76v-1.94h2.28v1.94h1.3v1.9h-1.3Z"/><path id="Path_8" class="cls-2" d="M62.07,4.13h2.29v6.46h-2.29v-.72c-.47.61-1.21.95-1.98.92-.45,0-.89-.08-1.3-.26-.39-.17-.74-.42-1.03-.72-.3-.32-.53-.69-.69-1.1-.17-.44-.25-.9-.24-1.37,0-.45.08-.9.24-1.32.15-.4.38-.77.67-1.09.29-.31.63-.56,1.02-.74.41-.18.86-.28,1.31-.27.76-.02,1.49.29,2,.84v-.64ZM59.2,7.34c0,.39.15.77.42,1.06.13.14.29.24.47.31.19.08.38.12.59.11.2,0,.39-.04.57-.11.18-.07.33-.18.47-.31.13-.14.24-.29.32-.47.08-.18.12-.37.12-.57,0-.2-.04-.39-.12-.57-.08-.17-.18-.33-.32-.47-.13-.14-.29-.24-.47-.31-.18-.08-.38-.11-.57-.11-.2,0-.4.04-.59.11-.18.07-.33.18-.47.31-.13.13-.23.29-.31.46-.08.18-.11.37-.11.56"/><path id="Path_9" class="cls-2" d="M20.54,15.77v7.4h-2.47v-7.4h-2.03v-2.09h6.52v2.09h-2.03Z"/><path id="Path_10" class="cls-2" d="M25.07,20.33c0,.98.46,1.47,1.38,1.47.46.02.89-.21,1.12-.6h2.2c-.41,1.46-1.83,2.4-3.34,2.22-.51,0-1.02-.08-1.5-.24-.43-.15-.83-.39-1.16-.7-.32-.3-.58-.67-.75-1.08-.18-.45-.27-.93-.26-1.41,0-.5.08-.99.25-1.45.16-.41.4-.79.72-1.1.32-.31.71-.55,1.13-.7.48-.17.98-.25,1.49-.24.5,0,1,.08,1.47.24.42.15.8.39,1.11.71.31.32.55.71.69,1.14.17.49.25,1,.24,1.52v.24h-4.79ZM27.74,19.01c-.06-.3-.23-.57-.47-.77-.51-.38-1.2-.39-1.72-.01-.23.2-.38.48-.42.78h2.61Z"/><path id="Path_11" class="cls-2" d="M36.04,18.81c-.35-.25-.77-.39-1.2-.4-.21,0-.42.04-.61.11-.19.07-.36.18-.5.32-.14.14-.26.31-.33.49-.08.2-.12.42-.12.64,0,.21.04.43.12.62.08.18.19.35.33.49.14.14.31.25.5.32.2.08.41.11.62.11.44,0,.86-.16,1.2-.44v1.93c-.5.23-1.05.35-1.6.37-.46,0-.91-.08-1.34-.24-.84-.31-1.52-.94-1.89-1.76-.2-.44-.3-.91-.29-1.39,0-.48.09-.96.28-1.4.18-.41.43-.79.75-1.1.33-.31.72-.56,1.14-.72.45-.17.93-.26,1.42-.26.53,0,1.06.12,1.54.35v1.94Z"/><path id="Path_12" class="cls-2" d="M37.65,12.73h2.28v4.81c.25-.33.57-.59.94-.76.36-.14.74-.21,1.12-.2.68-.05,1.35.2,1.84.67.43.5.66,1.15.62,1.82v4.1h-2.28v-3.25c0-.27-.02-.53-.08-.79-.04-.18-.12-.34-.25-.47-.2-.18-.46-.27-.73-.26-.33-.02-.66.1-.89.35-.22.28-.33.63-.31.99v3.45h-2.28v-10.45Z"/><path id="Path_13" class="cls-2" d="M22.38,28.36h-2.97v1.59h2.71v2.09h-2.71v3.73h-2.47v-9.49h5.44v2.09Z"/><path id="Path_14" class="cls-2" d="M23.29,32.48c0-.46.1-.92.29-1.34.19-.41.47-.78.81-1.08.36-.32.78-.56,1.23-.72.5-.18,1.03-.27,1.56-.26.53,0,1.05.08,1.54.26.45.16.87.4,1.23.72.35.3.62.68.81,1.1.2.44.3.92.29,1.4,0,.48-.1.96-.3,1.4-.19.42-.47.79-.81,1.1-.36.32-.78.56-1.24.71-.5.17-1.03.26-1.57.25-.52,0-1.04-.08-1.54-.25-.45-.16-.86-.4-1.22-.72-.34-.31-.61-.69-.8-1.11-.2-.45-.3-.95-.29-1.44M25.68,32.51c0,.21.04.41.12.6.08.17.18.33.31.47.13.14.29.24.47.31.37.15.78.15,1.15,0,.18-.07.33-.18.47-.31.13-.14.24-.3.31-.47.08-.18.12-.38.12-.58,0-.2-.04-.39-.12-.57-.08-.17-.18-.33-.31-.47-.13-.14-.29-.24-.47-.32-.37-.15-.78-.15-1.15,0-.18.07-.33.18-.47.32-.13.14-.24.29-.31.47-.08.18-.12.37-.12.57"/><path id="Path_15" class="cls-2" d="M34.63,29.31v3.64c-.03.64.47,1.18,1.11,1.21s1.18-.47,1.21-1.11c0-.03,0-.06,0-.1v-3.64h2.28v4.08c.05.76-.27,1.49-.86,1.96-1.61.87-3.54.87-5.15,0-.59-.47-.91-1.21-.86-1.96v-4.08h2.28Z"/><path id="Path_16" class="cls-2" d="M40.77,29.31h2.28v.82c.25-.33.57-.59.94-.76.36-.14.74-.21,1.12-.2.4-.01.8.07,1.16.22.32.14.6.36.82.62.18.21.31.46.38.73.07.3.1.61.1.92v4.1h-2.28v-3.26c0-.26-.02-.52-.07-.78-.04-.18-.12-.34-.25-.47-.09-.1-.21-.17-.34-.21-.13-.04-.26-.06-.4-.06-.33-.02-.66.11-.89.35-.22.28-.33.63-.31.99v3.45h-2.28v-6.45Z"/><path id="Path_17" class="cls-2" d="M54.12,25.32h2.29v10.45h-2.29v-.72c-.47.61-1.21.95-1.98.92-.45,0-.89-.08-1.3-.26-.39-.17-.74-.42-1.03-.73-.3-.32-.53-.69-.69-1.1-.32-.86-.33-1.81-.01-2.68.15-.4.37-.77.66-1.09.61-.65,1.46-1.01,2.35-1,.76-.02,1.49.29,2,.84v-4.63ZM51.25,32.52c0,.39.15.77.42,1.06.13.14.29.24.47.32.19.08.38.12.58.11.2,0,.39-.04.57-.11.18-.07.33-.18.47-.32.13-.14.24-.29.32-.46.08-.18.12-.37.12-.57,0-.2-.04-.39-.12-.57-.08-.17-.18-.33-.32-.47-.13-.14-.29-.24-.47-.32-.37-.15-.78-.15-1.15,0-.18.07-.33.18-.47.32-.13.13-.24.29-.32.46-.08.18-.12.37-.12.56"/><path id="Path_18" class="cls-2" d="M62.94,29.31h2.29v6.46h-2.29v-.72c-.47.61-1.21.95-1.98.92-.45,0-.89-.08-1.3-.26-.39-.17-.74-.42-1.03-.72-.3-.32-.53-.69-.69-1.1-.17-.44-.25-.9-.24-1.37,0-.45.08-.9.24-1.32.15-.4.38-.77.67-1.09.29-.31.63-.56,1.02-.74.41-.18.86-.28,1.31-.27.76-.02,1.49.29,2,.84v-.64ZM60.07,32.52c0,.39.15.77.42,1.06.13.14.29.24.47.32.19.08.38.12.59.11.2,0,.39-.04.57-.11.18-.07.33-.18.47-.32.13-.14.24-.29.32-.46.08-.18.12-.37.12-.57,0-.2-.04-.39-.12-.57-.08-.17-.18-.33-.32-.47-.13-.14-.29-.24-.47-.32-.18-.08-.38-.11-.57-.11-.2,0-.4.04-.59.11-.18.07-.33.18-.47.32-.13.13-.23.29-.31.46-.08.18-.11.37-.11.56"/><path id="Path_19" class="cls-2" d="M69.32,31.21v4.56h-2.28v-4.56h-.76v-1.9h.76v-1.94h2.28v1.94h1.3v1.9h-1.3Z"/><path id="Path_20" class="cls-2" d="M71.5,26.83c0-.17.03-.34.1-.5.13-.31.38-.55.69-.69.32-.13.68-.13.99,0,.31.13.55.38.69.69.13.32.13.68,0,1-.13.31-.38.55-.69.69-.32.13-.68.13-.99,0-.31-.13-.55-.38-.69-.69-.07-.16-.1-.33-.1-.5M73.93,35.76h-2.28v-6.45h2.28v6.45Z"/><path id="Path_21" class="cls-2" d="M75.24,32.48c0-.46.1-.92.29-1.34.19-.41.47-.78.81-1.08.36-.32.78-.56,1.23-.72.5-.18,1.03-.27,1.55-.26.53,0,1.05.08,1.54.26.45.16.87.4,1.23.72.35.3.62.68.81,1.1.2.44.3.92.29,1.4,0,.48-.1.96-.3,1.4-.19.42-.47.79-.81,1.1-.36.32-.78.56-1.24.71-.5.17-1.03.26-1.57.25-.52,0-1.04-.08-1.54-.25-.45-.16-.86-.4-1.21-.72-.34-.31-.61-.69-.8-1.11-.2-.45-.3-.95-.29-1.44M77.64,32.51c0,.21.04.41.12.6.08.17.18.33.32.47.13.14.29.24.47.31.37.15.78.15,1.15,0,.18-.07.33-.18.47-.31.13-.14.24-.3.32-.47.08-.18.12-.38.12-.58,0-.2-.04-.39-.12-.57-.08-.17-.18-.33-.32-.47-.13-.14-.29-.24-.47-.32-.37-.15-.78-.15-1.15,0-.18.07-.33.18-.47.32-.13.14-.24.29-.32.47-.08.18-.12.37-.12.57"/><path id="Path_22" class="cls-2" d="M84.3,29.31h2.28v.82c.25-.33.57-.59.94-.76.36-.14.74-.21,1.12-.2.4-.01.8.07,1.16.22.32.14.6.36.82.62.18.21.31.46.38.73.07.3.1.61.1.92v4.1h-2.28v-3.26c0-.26-.02-.52-.07-.78-.04-.18-.12-.34-.24-.47-.09-.1-.21-.17-.34-.21-.13-.04-.26-.06-.4-.06-.33-.02-.66.1-.89.35-.22.28-.33.63-.31.99v3.45h-2.28v-6.45Z"/></g><g id="Group_24"><path id="Path_45" class="cls-1" d="M10.29,12V1.72H0l10.28,10.28Z"/><path id="Path_46" class="cls-2" d="M10.29,12l1.71-1.71V0H1.71L0,1.71l10.29.04v10.25Z"/></g></svg>