<?xml version="1.0" encoding="utf-8"?>
<!-- Generator: Adobe Illustrator 28.5.0, SVG Export Plug-In . SVG Version: 9.03 Build 54727)  -->
<svg version="1.1" id="Layer_1" xmlns="http://www.w3.org/2000/svg" xmlns:xlink="http://www.w3.org/1999/xlink" x="0px" y="0px"
	 viewBox="0 0 128.1 119.4" style="enable-background:new 0 0 128.1 119.4;" xml:space="preserve">
<style type="text/css">
	.st0{fill:#DD4A4A;}
	.st1{fill:#E69A8D;}
	.st2{fill:#5F4B8B;}
</style>
<g>
	<path vector-effect="non-scaling-stroke" class="st0" d="M64,0.5l63.6,110.2H0.4L64,0.5 M64,0L0,110.9h128.1L64,0L64,0z"/>
</g>
<g>
	<polygon class="st1" points="43.2,58.6 31.2,58.6 31.2,46.6 	"/>
	<polyline class="st2" points="43.2,58.6 41.2,60.6 29.2,60.6 29.2,48.6 31.2,46.6 31.2,58.6 	"/>
</g>
<g>
	<polygon class="st1" points="92.6,60.6 92.6,48.6 104.6,48.6 	"/>
	<polyline class="st2" points="92.6,60.6 90.6,58.6 90.6,46.6 102.6,46.6 104.6,48.6 92.7,48.6 	"/>
</g>
<g>
	<polygon class="st1" points="58.4,102.4 66.9,110.9 58.4,119.4 	"/>
	<polyline class="st2" points="58.4,102.4 61.2,102.4 69.7,110.9 61.2,119.4 58.4,119.4 66.8,111 	"/>
</g>
</svg>
