<?xml version="1.0" encoding="UTF-8"?>
<svg id="Layer_1" data-name="Layer 1" xmlns="http://www.w3.org/2000/svg" version="1.1" viewBox="0 0 226 163.7">
  <defs>
    <style>
      .cls-1 {
        fill: #e69a8d;
      }

      .cls-1, .cls-2 {
        stroke-width: 0px;
      }

      .cls-2 {
        fill: #5f4b8b;
      }

      .cls-3 {
        fill: none;
        stroke: #e69a8d;
        stroke-miterlimit: 10;
      }
    </style>
  </defs>
  <polygon class="cls-3" points="113 .8 1 150.2 225 150.2 113 .8"/>
  <polygon class="cls-3" points="113 .8 1 150.2 225 150.2 113 .8"/>
  <g>
    <path id="Path_69-2" data-name="Path 69-2" class="cls-1" d="M107,136.7v27l13.5-13.5-13.5-13.5Z"/>
    <path id="Path_70-2" data-name="Path 70-2" class="cls-2" d="M111.5,136.7h-4.5l13.5,13.5-13.5,13.5h4.5l13.5-13.5-13.5-13.5Z"/>
  </g>
  <g>
    <path id="Path_69-2-2" data-name="Path 69-2" class="cls-1" d="M161.9,84.1l19.1-19.1h-19.1v19.1Z"/>
    <path id="Path_70-2-2" data-name="Path 70-2" class="cls-2" d="M158.7,80.9l3.2,3.2v-19.1h19.1l-3.2-3.2h-19.1v19.1Z"/>
  </g>
  <g>
    <path id="Path_69-2-3" data-name="Path 69-2" class="cls-1" d="M72.6,80.9l-19.1-19.1v19.1h19.1Z"/>
    <path id="Path_70-2-3" data-name="Path 70-2" class="cls-2" d="M69.4,84.1l3.2-3.2h-19.1v-19.1l-3.2,3.2v19.1h19.1Z"/>
  </g>
</svg>