<svg width="2560" height="400" viewBox="0 0 2560 400" fill="none" xmlns="http://www.w3.org/2000/svg">
<path fill-rule="evenodd" clip-rule="evenodd" d="M1728 40C1728 17.9086 1745.91 0 1768 0H2088C2110.09 0 2128 17.9086 2128 40V400H1944V280H1912V400H1728V40ZM1976 184V152H1880V184H1976Z" fill="#261230"/>
<path fill-rule="evenodd" clip-rule="evenodd" d="M0 40C0 17.9086 17.9086 0 40 0H360C382.091 0 400 17.9086 400 40V400H216V280H184V400H0V40ZM248 184V152H152V184H248Z" fill="#261230"/>
<path d="M432 40C432 17.9086 449.909 0 472 0H792C814.091 0 832 17.9086 832 40V120H648V88H616V152H792C814.091 152 832 169.909 832 192V360C832 382.091 814.091 400 792 400H472C449.909 400 432 382.091 432 360V280L616 280V312H648V248L472 248C449.909 248 432 230.091 432 208V40Z" fill="#261230"/>
<path d="M1264 64H1080V0H896V64H864V216H896V360C896 382.091 913.909 400 936 400H1264V248H1080V216H1224C1246.09 216 1264 198.091 1264 176V64Z" fill="#261230"/>
<path fill-rule="evenodd" clip-rule="evenodd" d="M1696 40C1696 17.9086 1678.09 0 1656 0H1296V400H1480V280H1512V400H1696V248H1616V216H1656C1678.09 216 1696 198.091 1696 176V40ZM1544 152V184H1448V152H1544Z" fill="#261230"/>
<path d="M2344 248L2560 248V400H2160V8.74228e-06L2344 0L2344 248Z" fill="#261230"/>
</svg>
