<?xml version="1.0" encoding="UTF-8"?>
<svg id="Ebene_1" data-name="Ebene 1" xmlns="http://www.w3.org/2000/svg" viewBox="0 0 225.5 71.67">
  <g id="Ebene_2" data-name="Ebene 2">
    <g id="_2.2_logo_claim_4c_dark_bg_" data-name=" 2.2 logo claim 4c dark bg ">
      <g id="logo_mbg_claim" data-name="logo mbg claim">
        <g id="claim">
          <g id="Experts.">
            <path d="m164.87,68.13v1.07h-6.23v-8.6h6.08v1.07h-4.87v2.64h4.31v1.04h-4.31v2.77h5.01Z" style="fill: #fff;"/>
            <path d="m171.3,69.2l-1.87-2.49-1.9,2.49h-1.31l2.56-3.33-2.44-3.18h1.31l1.79,2.34,1.78-2.34h1.29l-2.46,3.18,2.59,3.33h-1.35Z" style="fill: #fff;"/>
            <path d="m181.28,65.95c.09,1.74-1.25,3.23-2.99,3.32-.09,0-.19,0-.28,0-.88.02-1.72-.37-2.27-1.06v3.38h-1.18v-8.89h1.13v1.03c.55-.73,1.43-1.13,2.34-1.09,1.74-.06,3.2,1.31,3.26,3.05,0,.08,0,.17,0,.25Zm-1.19,0c-.05-1.21-1.08-2.15-2.29-2.09-1.21.05-2.15,1.08-2.09,2.29.05,1.17,1.01,2.09,2.19,2.1,1.19.03,2.18-.92,2.2-2.11,0-.06,0-.12,0-.18Z" style="fill: #fff;"/>
            <path d="m189.39,66.34h-5.28c.15,1.15,1.07,1.9,2.34,1.9.71.02,1.39-.26,1.87-.79l.65.76c-.66.72-1.6,1.1-2.57,1.06-2.1,0-3.5-1.4-3.5-3.33-.07-1.76,1.29-3.24,3.05-3.32.07,0,.15,0,.22,0,1.87,0,3.22,1.35,3.22,3.35.02.1,0,.25,0,.36Zm-5.28-.82h4.18c-.12-1.15-1.16-1.99-2.31-1.87-.99.1-1.76.88-1.87,1.87Z" style="fill: #fff;"/>
            <path d="m195.14,62.63v1.14c-.09,0-.18,0-.27,0-1.26,0-2.05.78-2.05,2.2v3.24h-1.18v-6.51h1.16v1.1c.41-.78,1.22-1.17,2.34-1.17Z" style="fill: #fff;"/>
            <path d="m201.15,68.82c-.4.31-.9.48-1.4.47-1.31,0-2.06-.73-2.06-2.04v-3.61h-1.14v-.94h1.1v-1.43h1.18v1.43h1.87v.94h-1.87v3.53c-.09.51.25.99.76,1.08.08.01.17.02.25,0,.34,0,.67-.1.94-.3l.37.87Z" style="fill: #fff;"/>
            <path d="m202.36,68.51l.49-.94c.68.44,1.47.68,2.28.67,1.09,0,1.54-.33,1.54-.88,0-1.46-4.11-.2-4.11-2.81,0-1.17,1.04-1.95,2.71-1.95.83-.01,1.65.19,2.37.59l-.51.94c-.56-.35-1.21-.53-1.87-.51-1.03,0-1.54.38-1.54.9,0,1.53,4.13.28,4.13,2.81,0,1.17-1.08,1.93-2.81,1.93-.95.03-1.89-.22-2.7-.74Z" style="fill: #fff;"/>
            <path d="m209.4,68.43c-.01-.45.35-.83.8-.84.01,0,.02,0,.03,0,.47,0,.84.38.84.84s-.38.84-.84.84c-.46,0-.83-.37-.83-.82,0,0,0-.02,0-.02Z" style="fill: #fff;"/>
          </g>
          <g id="Synchronization">
            <path d="m43.8,68.22l.47-.96c.8.65,1.8,1.01,2.84,1,1.48,0,2.12-.58,2.12-1.33,0-2.1-5.21-.77-5.21-3.96,0-1.33,1.03-2.46,3.28-2.46.98-.02,1.94.25,2.77.76l-.41.98c-.7-.45-1.51-.69-2.34-.7-1.46,0-2.09.61-2.09,1.36,0,2.1,5.21.79,5.21,3.94,0,1.31-1.06,2.44-3.33,2.44-1.2.04-2.37-.34-3.31-1.08Z" style="fill: #fff;"/>
            <path d="m58.28,62.71l-3.16,7.16c-.58,1.38-1.32,1.81-2.34,1.81-.61.02-1.21-.2-1.67-.6l.51-.88c.31.3.73.47,1.17.47.57,0,.94-.26,1.24-1.01l.21-.47-2.85-6.47h1.23l2.27,5.21,2.25-5.21h1.16Z" style="fill: #fff;"/>
            <path d="m66.18,65.46v3.74h-1.18v-3.61c0-1.28-.64-1.9-1.75-1.9-1.25,0-2.06.75-2.06,2.16v3.36h-1.18v-6.5h1.13v.98c.57-.7,1.44-1.09,2.34-1.04,1.58-.01,2.71.89,2.71,2.81Z" style="fill: #fff;"/>
            <path d="m68.41,65.95c0-1.94,1.44-3.32,3.44-3.32,1.08-.06,2.1.48,2.65,1.4l-.9.54c-.38-.6-1.06-.96-1.77-.94-1.27.06-2.24,1.13-2.19,2.39.05,1.18,1,2.13,2.19,2.19.71.02,1.38-.33,1.77-.94l.9.56c-.56.92-1.58,1.46-2.65,1.4-1.81.09-3.34-1.3-3.44-3.11,0-.07,0-.13,0-.2Z" style="fill: #fff;"/>
            <path d="m82.73,65.46v3.74h-1.18v-3.61c0-1.28-.64-1.9-1.76-1.9-1.25,0-2.06.75-2.06,2.16v3.36h-1.17v-9.11h1.17v3.52c.57-.67,1.42-1.03,2.3-.98,1.59,0,2.7.91,2.7,2.83Z" style="fill: #fff;"/>
            <path d="m89.02,62.63v1.14c-.09,0-.18,0-.27,0-1.27,0-2.05.78-2.05,2.2v3.24h-1.18v-6.51h1.13v1.1c.42-.78,1.23-1.17,2.37-1.17Z" style="fill: #fff;"/>
            <path d="m90.42,65.95c-.03-1.87,1.46-3.41,3.33-3.44,1.87-.03,3.41,1.46,3.44,3.33.03,1.87-1.46,3.41-3.33,3.44-.02,0-.03,0-.05,0-1.79.09-3.3-1.29-3.39-3.08,0-.08,0-.17,0-.25Zm5.58,0c-.05-1.21-1.08-2.15-2.29-2.09-1.21.05-2.15,1.08-2.09,2.29.05,1.18,1.02,2.1,2.2,2.1,1.18.03,2.16-.9,2.19-2.09,0-.07,0-.14,0-.21Z" style="fill: #fff;"/>
            <path d="m105.61,65.46v3.74h-1.18v-3.61c0-1.28-.64-1.9-1.75-1.9-1.25,0-2.06.75-2.06,2.16v3.36h-1.18v-6.5h1.13v.98c.56-.71,1.44-1.1,2.34-1.04,1.59-.01,2.7.89,2.7,2.81Z" style="fill: #fff;"/>
            <path d="m108.2,60.68c0-.43.35-.78.79-.78,0,0,0,0,.01,0,.42.02.75.38.73.8-.02.42-.38.75-.8.73-.41-.02-.73-.35-.73-.76Zm.21,2.01h1.18v6.51h-1.18v-6.51Z" style="fill: #fff;"/>
            <path d="m117.28,68.23v.97h-5.44v-.76l3.83-4.8h-3.77v-.94h5.28v.77l-3.85,4.77h3.94Z" style="fill: #fff;"/>
            <path d="m124.62,65.27v3.93h-1.12v-.88c-.39.59-1.12.94-2.14.94-1.47,0-2.41-.79-2.41-1.92,0-1.04.67-1.9,2.62-1.9h1.87v-.23c0-1-.58-1.57-1.75-1.57-.75,0-1.48.24-2.06.7l-.49-.88c.78-.57,1.73-.86,2.69-.83,1.77.02,2.78.88,2.78,2.66Zm-1.18,1.94v-.91h-1.82c-1.17,0-1.5.47-1.5,1.01,0,.65.54,1.05,1.44,1.05.81.07,1.57-.4,1.88-1.15h0Z" style="fill: #fff;"/>
            <path d="m131.08,68.82c-.41.32-.91.48-1.43.47-1.31,0-2.06-.73-2.06-2.04v-3.61h-1.1v-.94h1.1v-1.43h1.18v1.43h1.87v.94h-1.87v3.53c-.09.51.25.99.76,1.08.09.01.17.02.26,0,.34,0,.67-.1.94-.3l.36.87Z" style="fill: #fff;"/>
            <path d="m132.9,60.68c0-.43.35-.78.79-.78,0,0,0,0,.01,0,.42.02.75.38.73.8s-.38.75-.8.73c-.41-.02-.73-.35-.73-.76Zm.21,2.01h1.19v6.51h-1.18v-6.51Z" style="fill: #fff;"/>
            <path d="m136.55,65.95c-.03-1.87,1.46-3.41,3.33-3.45,1.87-.03,3.41,1.46,3.45,3.33.03,1.87-1.46,3.41-3.33,3.45-.02,0-.04,0-.06,0-1.79.08-3.31-1.3-3.39-3.09,0-.08,0-.16,0-.24Zm5.58,0c-.05-1.21-1.08-2.15-2.29-2.09-1.21.05-2.15,1.08-2.09,2.29.05,1.18,1.02,2.1,2.2,2.1,1.18.03,2.16-.9,2.19-2.09,0-.07,0-.14,0-.21Z" style="fill: #fff;"/>
            <path d="m151.74,65.46v3.74h-1.18v-3.61c0-1.28-.64-1.9-1.75-1.9-1.25,0-2.06.75-2.06,2.16v3.36h-1.18v-6.5h1.13v.98c.57-.7,1.44-1.09,2.34-1.04,1.59-.01,2.7.89,2.7,2.81Z" style="fill: #fff;"/>
          </g>
          <g id="The">
            <path d="m17.41,61.67h-2.95v-1.07h7.11v1.07h-2.95v7.53h-1.22v-7.53Z" style="fill: #fff;"/>
            <path d="m29.53,65.46v3.74h-1.18v-3.61c0-1.28-.64-1.9-1.75-1.9-1.25,0-2.06.75-2.06,2.16v3.36h-1.18v-9.11h1.18v3.52c.57-.67,1.42-1.03,2.3-.98,1.58,0,2.7.91,2.7,2.83Z" style="fill: #fff;"/>
            <path d="m38.22,66.34h-5.28c.15,1.15,1.07,1.9,2.34,1.9.71.02,1.39-.26,1.87-.79l.65.76c-.65.7-1.58,1.08-2.54,1.04-2.1,0-3.5-1.4-3.5-3.33-.07-1.76,1.29-3.24,3.05-3.32.07,0,.15,0,.22,0,1.87,0,3.22,1.35,3.22,3.35,0,.12-.02.27-.03.37Zm-5.28-.82h4.18c-.12-1.15-1.16-1.99-2.31-1.87-.99.1-1.76.88-1.87,1.87Z" style="fill: #fff;"/>
          </g>
        </g>
        <g id="logo_mbg" data-name="logo mbg">
          <path id="background" d="m5.85.98h213.79c2.72.04,4.9,2.28,4.87,5v40.04c.02,2.72-2.16,4.94-4.87,4.98H5.85c-2.72-.04-4.89-2.27-4.87-4.98V5.99c-.03-2.72,2.15-4.96,4.87-5Z" style="fill: #fff; fill-rule: evenodd;"/>
          <path id="contour" d="m5.85,0h213.79c1.56,0,3.06.64,4.14,1.77,1.1,1.13,1.71,2.64,1.71,4.21v40.04c0,1.57-.61,3.09-1.71,4.21-1.08,1.13-2.58,1.76-4.14,1.77H5.85c-1.56,0-3.06-.64-4.14-1.77C.61,49.11,0,47.6,0,46.02V5.99c0-1.57.61-3.08,1.71-4.21C2.8.65,4.29,0,5.85,0Zm213.79,1.96H5.85c-1.03,0-2.02.43-2.74,1.17-.74.76-1.16,1.79-1.16,2.85v40.04c0,1.07.41,2.09,1.16,2.85.72.74,1.7,1.17,2.74,1.17h213.79c1.03,0,2.02-.43,2.74-1.17.74-.76,1.15-1.79,1.15-2.85V5.99c0-1.06-.41-2.09-1.15-2.85-.72-.75-1.71-1.17-2.74-1.17Z" style="fill: #005ca9;"/>
          <g id="typo_MEINBERG" data-name="typo MEINBERG">
            <path id="G" d="m210.25,9.83h-16.71c-.83.04-1.61.38-2.2.96-.67.62-1.17,1.4-1.44,2.27h0l-6.71,24.02c-.04.15-.08.31-.1.47-.02.17-.03.35-.03.52.01,1.02.4,2.01,1.1,2.76.64.75,1.57,1.19,2.55,1.21h14.09c.8-.02,1.57-.32,2.16-.86.64-.56,1.11-1.29,1.35-2.11h0l3.96-14.12c.04-.15.07-.31.09-.47.03-.17.04-.35.04-.52,0-.97-.39-1.9-1.07-2.59h0c-.69-.69-1.62-1.07-2.59-1.07h-5.57l-.13.39-.38,1.14-.25.73h3.23c.67,0,1.31.26,1.79.73h0c.47.48.74,1.12.74,1.79,0,.13,0,.26-.03.38h0c-.02.13-.05.26-.08.39h0l-3.53,11.81c-.16.51-.48.96-.91,1.28-.44.31-.97.48-1.51.47h-6.93c-.67,0-1.31-.26-1.79-.73h0c-.48-.47-.74-1.12-.74-1.79,0-.12,0-.23,0-.35,0-.1.02-.2.04-.29l5.78-21.69c.3-1.11,1.3-1.87,2.45-1.87h13.1l.13-.38.6-1.74.29-.73h-.8Z" style="fill: #005ca9;"/>
            <path id="R" d="m183.31,19.52l1.49-4.35h0c.06-.17.11-.35.15-.53h0c.03-.19.05-.38.05-.57-.02-1.06-.4-2.09-1.1-2.9-.63-.78-1.57-1.25-2.57-1.28h-10.63l-4.75.02h-.42l-.12.4-9.26,31.17-.22.72h6.34l.12-.4,8.7-29.09h6.87c.67,0,1.31.26,1.79.73h0c.48.47.74,1.12.74,1.79,0,.17-.02.34-.05.5-.03.16-.08.32-.14.47l-1.55,3.11h0c-.14.29-.37.54-.65.72-.28.17-.61.27-.94.27h-5.62c-.45,0-.89.18-1.22.5-.31.32-.49.76-.48,1.21l-.56,2.81v.11c0,.45.18.89.5,1.22.32.33.75.51,1.21.51h5.11c.26,0,.51.11.69.29h0c.18.18.29.43.29.69,0,.08,0,.16-.04.23v.03h0l-3.94,13.47-.26.77h4.34l.11-.43,3.58-13.67h0c.03-.12.06-.24.07-.37.02-.13.03-.25.03-.38,0-.77-.3-1.5-.84-2.04-.53-.56-1.26-.87-2.03-.88h-6.36c-.06,0-.12-.02-.17-.06-.02-.02-.04-.05-.05-.08l.57-1.82.02-.08v-.08c0-.06.03-.12.07-.16.04-.03.08-.05.13-.06h7.49c.76,0,1.51-.24,2.13-.68.62-.44,1.09-1.07,1.34-1.79h0Z" style="fill: #005ca9;"/>
            <path id="E-2" d="m141.06,37.31h0l2.2-8.69h0c.12-.56.44-1.05.88-1.4.45-.36,1-.55,1.58-.55h9.17c.46,0,.9-.18,1.23-.51h0c.31-.31.49-.72.51-1.16l.56-2.85v-.15c0-.46-.19-.89-.51-1.21-.32-.32-.76-.5-1.22-.5h-8.34c-.15,0-.3-.06-.4-.17-.11-.12-.18-.27-.17-.44,0-.02,0-.04,0-.07v-.05l1.06-4.34h0c.17-.72.58-1.36,1.16-1.82.58-.46,1.3-.71,2.04-.71h9.39l.12-.41.47-1.68.21-.72h-13.35c-.98.03-1.92.42-2.63,1.1-.79.72-1.37,1.65-1.66,2.68l-1.68,6.16c-.04.14-.06.28-.05.43,0,.46.18.89.5,1.22.32.33.75.51,1.21.51h11.4s.1.02.13.06c.03.03.05.07.06.11l-.54,1.82-.03.08v.07c0,.05-.02.1-.05.14-.05.04-.11.06-.17.06h-10.86c-2,0-3.75,1.34-4.28,3.27h0l-2.99,10.46h0c-.07.25-.1.5-.1.76.01.82.31,1.61.84,2.24.46.63,1.19,1.02,1.97,1.05h12.73l.14-.37.52-1.54.27-.76h-9.58c-.46,0-.9-.18-1.23-.51h0c-.33-.33-.51-.77-.51-1.23v-.23c0-.06.01-.11.03-.16Z" style="fill: #005ca9;"/>
            <path id="B" d="m136.81,16.28c.08-.24.14-.48.17-.73.04-.24.05-.49.05-.73-.02-1.27-.49-2.5-1.32-3.45-.76-.93-1.89-1.48-3.09-1.51h-14.79l-.12.41-9.23,31.07-.22.73h6.39l.12-.4,8.63-28.99h6.95c.67,0,1.32.26,1.79.73h0c.48.47.75,1.12.75,1.8,0,.17-.01.33-.05.5-.04.16-.09.32-.15.47l-1.48,2.96v.04c-.13.33-.37.61-.66.8-.29.19-.63.3-.98.29h-5.62c-.93,0-1.69.75-1.71,1.68l-.58,2.81v.12c-.01.46.15.9.47,1.24h0c.32.33.77.51,1.23.51h5.02c.98,0,1.77.8,1.77,1.77,0,.11-.01.23-.04.34-.02.1-.05.19-.09.28h0v.04l-3.35,8.82v.09c-.16.83-.88,1.45-1.73,1.47h-8.66l-.13.39-.47,1.52-.24.74h11.23c.76-.02,1.49-.3,2.06-.81.63-.54,1.1-1.23,1.38-2.01h0l3.58-11.09c.05-.15.09-.31.12-.47.03-.15.05-.31.05-.47-.01-1.6-1.3-2.89-2.9-2.9h-6.8c-.06,0-.12-.02-.17-.06-.02-.02-.04-.05-.05-.08l.54-1.83.02-.08v-.08c0-.12.1-.22.22-.22h8.04c.61,0,1.21-.2,1.7-.57.49-.36.85-.87,1.03-1.44l1.3-3.67v-.02Z" style="fill: #005ca9;"/>
            <path id="N" d="m111.48,14.86c.06-.26.1-.52.1-.79-.03-1.08-.44-2.11-1.14-2.92h0c-.62-.79-1.55-1.27-2.55-1.31h-15.51l-.12.4-9.27,31.26-.22.72h6.34l.12-.4,8.71-29.1h6.69c.67,0,1.32.26,1.79.73h0c.48.47.74,1.12.74,1.79,0,.09,0,.18,0,.28,0,.04,0,.15-.03.27l-7.2,25.54-.2.72h4.16l.11-.41,7.49-26.76h0Z" style="fill: #005ca9;"/>
            <polygon id="I" points="88.25 10 87.5 10 82.28 10 81.86 10 81.74 10.4 72.5 41.47 72.29 42.2 73.05 42.2 78.23 42.2 78.65 42.2 78.78 41.79 88.04 10.72 88.25 10" style="fill: #005ca9;"/>
            <path id="E-1" d="m57.26,37.31h0l2.2-8.69h0c.13-.56.44-1.05.88-1.4.45-.36,1.01-.55,1.58-.55h9.2c.46,0,.9-.18,1.23-.51h0c.31-.31.49-.72.51-1.16l.56-2.85v-.15c0-.46-.19-.89-.51-1.21-.33-.32-.76-.5-1.22-.5h-8.37c-.15,0-.3-.06-.4-.17-.11-.12-.18-.27-.17-.44v-.11l1.06-4.34h0c.17-.72.58-1.36,1.16-1.82.58-.46,1.3-.71,2.04-.71h9.39l.12-.41.47-1.68.21-.72h-13.34c-.98.03-1.92.42-2.63,1.1-.79.72-1.37,1.65-1.67,2.68l-1.68,6.16c-.04.14-.06.28-.05.43,0,.45.16.89.47,1.22.32.33.76.51,1.21.51h11.41s.1.02.13.06c.03.03.05.07.06.11l-.54,1.82v.16c0,.05-.02.1-.05.14-.05.04-.11.06-.17.06h-10.87c-.98,0-1.92.34-2.69.94-.77.59-1.33,1.41-1.6,2.34h0l-2.99,10.46h0c-.06.25-.1.5-.1.76.01.82.31,1.61.83,2.24.47.63,1.19,1.02,1.97,1.05h12.73l.13-.37.56-1.54.27-.76h-9.63c-.46,0-.9-.18-1.23-.51h0c-.33-.33-.51-.77-.51-1.23,0-.08,0-.15,0-.23,0-.06.02-.11.04-.16Z" style="fill: #005ca9;"/>
            <path id="M" d="m55.47,15.12c.05-.16.08-.33.11-.5.02-.16.03-.31.03-.47-.03-1.07-.41-2.1-1.1-2.92-.61-.79-1.54-1.27-2.54-1.3h-6.93c-.81.02-1.58.36-2.14.94-.65.63-1.12,1.41-1.36,2.28h0l-8.17,26.8h0c-.06.21-.18.4-.36.53-.17.13-.38.2-.59.2h-.41c-.26,0-.51-.1-.69-.29-.19-.18-.29-.44-.29-.7,0-.07,0-.13,0-.2v-.05l7.63-25.74h0c.03-.11.1-.47.15-.78h0c.04-.22.07-.45.09-.67.01-.63-.23-1.24-.68-1.68-.46-.43-1.08-.66-1.71-.65h-12.5l-.12.4-9.21,31.07-.22.72h6.31l.12-.4,8.65-28.93h5.88c.37,0,.72.15.98.41.26.25.4.58.41.94,0,.05,0,.11,0,.16,0,.07-.04.14-.06.21h0l-7.2,24.02v.07h0c-.1.33-.44,1.4-.04,2.03.78,1.51,1.37,1.51,2.3,1.51h.57c1.82.12,2.04-.51,2.67-2.34.07-.19.14-.4.22-.63v-.03l7.49-24.47h0c.12-.52.36-1,.72-1.4.32-.32.76-.49,1.21-.47h3.28c1.18.06,2.1,1.03,2.1,2.2,0,.16-.02.31-.05.47-.03.15-.08.29-.14.43v.07l-7.9,25.44-.22.73h5.33l.12-.4,8.26-26.59h0Z" style="fill: #005ca9;"/>
          </g>
        </g>
      </g>
    </g>
  </g>
</svg>